<mxfile host="65bd71144e">
    <diagram id="ddQpZl_WwLtLbr-TsVEJ" name="Page-1">
        <mxGraphModel dx="669" dy="357" grid="1" gridSize="10" guides="1" tooltips="1" connect="1" arrows="1" fold="1" page="1" pageScale="1" pageWidth="827" pageHeight="1169" math="0" shadow="0">
            <root>
                <mxCell id="0"/>
                <mxCell id="1" parent="0"/>
                <mxCell id="89" value="" style="ellipse;html=1;shape=endState;fillColor=#000000;strokeColor=#ff0000;" vertex="1" parent="1">
                    <mxGeometry x="695" y="456.88" width="30" height="30" as="geometry"/>
                </mxCell>
                <mxCell id="90" value="" style="ellipse;html=1;shape=startState;fillColor=#000000;strokeColor=#ff0000;" vertex="1" parent="1">
                    <mxGeometry x="328.9" y="20" width="30" height="30" as="geometry"/>
                </mxCell>
                <mxCell id="91" value="" style="edgeStyle=orthogonalEdgeStyle;html=1;verticalAlign=bottom;endArrow=open;endSize=8;strokeColor=#ff0000;entryX=0.5;entryY=0;entryDx=0;entryDy=0;" edge="1" parent="1" source="90" target="93">
                    <mxGeometry relative="1" as="geometry">
                        <mxPoint x="93" y="260" as="targetPoint"/>
                    </mxGeometry>
                </mxCell>
                <mxCell id="92" style="edgeStyle=none;html=1;exitX=0.5;exitY=1;exitDx=0;exitDy=0;entryX=0.5;entryY=0;entryDx=0;entryDy=0;" edge="1" parent="1" source="93" target="107">
                    <mxGeometry relative="1" as="geometry"/>
                </mxCell>
                <mxCell id="93" value="Đăng nhập" style="rounded=1;whiteSpace=wrap;html=1;" vertex="1" parent="1">
                    <mxGeometry x="282.99" y="90" width="120" height="60" as="geometry"/>
                </mxCell>
                <mxCell id="94" value="" style="edgeStyle=none;html=1;" edge="1" parent="1" source="95" target="109">
                    <mxGeometry relative="1" as="geometry"/>
                </mxCell>
                <mxCell id="95" value="Tạo thẻ" style="rounded=1;whiteSpace=wrap;html=1;arcSize=22;" vertex="1" parent="1">
                    <mxGeometry x="64" y="387.5" width="120" height="62.5" as="geometry"/>
                </mxCell>
                <mxCell id="96" value="" style="edgeStyle=none;html=1;" edge="1" parent="1" source="97" target="115">
                    <mxGeometry relative="1" as="geometry"/>
                </mxCell>
                <mxCell id="97" value="Sửa thẻ" style="rounded=1;whiteSpace=wrap;html=1;" vertex="1" parent="1">
                    <mxGeometry x="285.1" y="350" width="120" height="62.5" as="geometry"/>
                </mxCell>
                <mxCell id="98" value="" style="edgeStyle=none;html=1;endArrow=classic;endFill=1;" edge="1" parent="1" source="99" target="124">
                    <mxGeometry relative="1" as="geometry"/>
                </mxCell>
                <mxCell id="99" value="Xóa thẻ" style="rounded=1;whiteSpace=wrap;html=1;" vertex="1" parent="1">
                    <mxGeometry x="504" y="365" width="120" height="62.5" as="geometry"/>
                </mxCell>
                <mxCell id="100" style="edgeStyle=none;html=1;exitX=0.502;exitY=-0.004;exitDx=0;exitDy=0;exitPerimeter=0;entryX=0.5;entryY=0;entryDx=0;entryDy=0;" edge="1" parent="1" source="103" target="99">
                    <mxGeometry relative="1" as="geometry">
                        <Array as="points">
                            <mxPoint x="560" y="304"/>
                        </Array>
                        <mxPoint x="560" y="360" as="targetPoint"/>
                    </mxGeometry>
                </mxCell>
                <mxCell id="101" style="edgeStyle=none;html=1;entryX=0.5;entryY=0;entryDx=0;entryDy=0;exitX=0.474;exitY=0.999;exitDx=0;exitDy=0;exitPerimeter=0;" edge="1" parent="1" source="103" target="95">
                    <mxGeometry relative="1" as="geometry">
                        <Array as="points">
                            <mxPoint x="124" y="300"/>
                        </Array>
                    </mxGeometry>
                </mxCell>
                <mxCell id="102" style="edgeStyle=none;rounded=1;html=1;entryX=0.5;entryY=0;entryDx=0;entryDy=0;endArrow=classic;endFill=1;" edge="1" parent="1" source="103" target="97">
                    <mxGeometry relative="1" as="geometry"/>
                </mxCell>
                <mxCell id="103" value="" style="html=1;points=[];perimeter=orthogonalPerimeter;rotation=90;" vertex="1" parent="1">
                    <mxGeometry x="335.8399999999999" y="257.33" width="14.31" height="80" as="geometry"/>
                </mxCell>
                <mxCell id="104" value="" style="edgeStyle=none;html=1;" edge="1" parent="1" source="105" target="89">
                    <mxGeometry relative="1" as="geometry"/>
                </mxCell>
                <mxCell id="105" value="Đăng xuất" style="rounded=1;whiteSpace=wrap;html=1;" vertex="1" parent="1">
                    <mxGeometry x="650" y="370" width="120" height="60" as="geometry"/>
                </mxCell>
                <mxCell id="106" value="" style="edgeStyle=none;html=1;exitX=0.508;exitY=1.005;exitDx=0;exitDy=0;exitPerimeter=0;" edge="1" parent="1" source="107" target="103">
                    <mxGeometry relative="1" as="geometry"/>
                </mxCell>
                <mxCell id="107" value="Xem danh sách các thẻ" style="rounded=1;whiteSpace=wrap;html=1;" vertex="1" parent="1">
                    <mxGeometry x="283" y="185" width="120" height="60" as="geometry"/>
                </mxCell>
                <mxCell id="108" value="" style="edgeStyle=none;html=1;" edge="1" parent="1" source="109" target="110">
                    <mxGeometry relative="1" as="geometry"/>
                </mxCell>
                <mxCell id="109" value="Đặt tên thẻ" style="whiteSpace=wrap;html=1;rounded=1;arcSize=22;" vertex="1" parent="1">
                    <mxGeometry x="64" y="486.88" width="120" height="60" as="geometry"/>
                </mxCell>
                <mxCell id="110" value="Mô tả thẻ" style="whiteSpace=wrap;html=1;rounded=1;arcSize=22;" vertex="1" parent="1">
                    <mxGeometry x="64" y="586.87" width="120" height="60" as="geometry"/>
                </mxCell>
                <mxCell id="111" value="" style="html=1;points=[];perimeter=orthogonalPerimeter;rotation=90;" vertex="1" parent="1">
                    <mxGeometry x="338.85" y="523.13" width="12.5" height="80" as="geometry"/>
                </mxCell>
                <mxCell id="112" value="Đổi tên thẻ" style="whiteSpace=wrap;html=1;rounded=1;arcSize=22;" vertex="1" parent="1">
                    <mxGeometry x="190" y="640" width="120" height="60" as="geometry"/>
                </mxCell>
                <mxCell id="113" value="Đổi mô tả thẻ" style="whiteSpace=wrap;html=1;rounded=1;arcSize=22;" vertex="1" parent="1">
                    <mxGeometry x="395.1" y="640" width="120" height="60" as="geometry"/>
                </mxCell>
                <mxCell id="114" value="" style="edgeStyle=none;html=1;endArrow=classic;endFill=1;" edge="1" parent="1" source="115" target="111">
                    <mxGeometry relative="1" as="geometry"/>
                </mxCell>
                <mxCell id="115" value="Chọn thẻ để sửa" style="rounded=1;whiteSpace=wrap;html=1;" vertex="1" parent="1">
                    <mxGeometry x="285.1" y="460.63" width="120" height="62.5" as="geometry"/>
                </mxCell>
                <mxCell id="116" value="Xác nhận" style="whiteSpace=wrap;html=1;rounded=1;arcSize=22;" vertex="1" parent="1">
                    <mxGeometry x="291.85000000000014" y="870" width="120" height="60" as="geometry"/>
                </mxCell>
                <mxCell id="117" value="" style="endArrow=classic;html=1;startArrow=none;exitX=0.5;exitY=1;exitDx=0;exitDy=0;endFill=1;entryX=0.847;entryY=0.987;entryDx=0;entryDy=0;entryPerimeter=0;" edge="1" parent="1" source="110" target="119">
                    <mxGeometry width="50" height="50" relative="1" as="geometry">
                        <mxPoint x="43.99999999999977" y="756.4999999999999" as="sourcePoint"/>
                        <mxPoint x="4" y="729.63" as="targetPoint"/>
                        <Array as="points">
                            <mxPoint x="124" y="784"/>
                        </Array>
                    </mxGeometry>
                </mxCell>
                <mxCell id="118" value="" style="edgeStyle=none;html=1;endArrow=classic;endFill=1;" edge="1" parent="1" source="119" target="116">
                    <mxGeometry relative="1" as="geometry"/>
                </mxCell>
                <mxCell id="119" value="" style="html=1;points=[];perimeter=orthogonalPerimeter;rotation=90;" vertex="1" parent="1">
                    <mxGeometry x="345.6" y="740" width="12.5" height="80" as="geometry"/>
                </mxCell>
                <mxCell id="120" value="" style="endArrow=classic;html=1;startArrow=none;exitX=0.5;exitY=1;exitDx=0;exitDy=0;endFill=1;entryX=0.059;entryY=0.509;entryDx=0;entryDy=0;entryPerimeter=0;" edge="1" parent="1" source="112" target="119">
                    <mxGeometry width="50" height="50" relative="1" as="geometry">
                        <mxPoint x="45.099999999999795" y="656.8699999999999" as="sourcePoint"/>
                        <mxPoint x="307.01999999999987" y="910" as="targetPoint"/>
                        <Array as="points"/>
                    </mxGeometry>
                </mxCell>
                <mxCell id="121" value="" style="endArrow=classic;html=1;startArrow=none;exitX=0.5;exitY=1;exitDx=0;exitDy=0;endFill=1;entryX=0.066;entryY=0.514;entryDx=0;entryDy=0;entryPerimeter=0;" edge="1" parent="1" source="113" target="119">
                    <mxGeometry width="50" height="50" relative="1" as="geometry">
                        <mxPoint x="275.0999999999998" y="673.1300000000001" as="sourcePoint"/>
                        <mxPoint x="361.12999999999977" y="784.4874999999997" as="targetPoint"/>
                        <Array as="points"/>
                    </mxGeometry>
                </mxCell>
                <mxCell id="122" value="" style="endArrow=classic;html=1;exitX=0.926;exitY=0.992;exitDx=0;exitDy=0;exitPerimeter=0;entryX=0.5;entryY=0;entryDx=0;entryDy=0;" edge="1" parent="1" source="111" target="112">
                    <mxGeometry width="50" height="50" relative="1" as="geometry">
                        <mxPoint x="145.10000000000002" y="580" as="sourcePoint"/>
                        <mxPoint x="195.10000000000002" y="530" as="targetPoint"/>
                    </mxGeometry>
                </mxCell>
                <mxCell id="123" value="" style="endArrow=classic;html=1;startArrow=none;exitX=0.999;exitY=0.016;exitDx=0;exitDy=0;endFill=1;entryX=0.5;entryY=0;entryDx=0;entryDy=0;exitPerimeter=0;" edge="1" parent="1" source="111" target="113">
                    <mxGeometry width="50" height="50" relative="1" as="geometry">
                        <mxPoint x="285.0999999999998" y="683.1300000000001" as="sourcePoint"/>
                        <mxPoint x="371.12999999999977" y="794.4874999999997" as="targetPoint"/>
                        <Array as="points"/>
                    </mxGeometry>
                </mxCell>
                <mxCell id="124" value="Chọn thẻ để xóa" style="rounded=1;whiteSpace=wrap;html=1;" vertex="1" parent="1">
                    <mxGeometry x="504" y="460.63" width="120" height="62.5" as="geometry"/>
                </mxCell>
                <mxCell id="125" value="" style="endArrow=classic;html=1;startArrow=none;exitX=0.5;exitY=1;exitDx=0;exitDy=0;endFill=1;entryX=0.68;entryY=0.006;entryDx=0;entryDy=0;entryPerimeter=0;" edge="1" parent="1" source="124" target="119">
                    <mxGeometry width="50" height="50" relative="1" as="geometry">
                        <mxPoint x="63.99999999999977" y="656.8699999999999" as="sourcePoint"/>
                        <mxPoint x="320.75" y="910" as="targetPoint"/>
                        <Array as="points">
                            <mxPoint x="564" y="780"/>
                        </Array>
                    </mxGeometry>
                </mxCell>
                <mxCell id="126" value="" style="endArrow=none;html=1;startArrow=none;exitX=0.5;exitY=1;exitDx=0;exitDy=0;endFill=0;" edge="1" parent="1" source="116">
                    <mxGeometry width="50" height="50" relative="1" as="geometry">
                        <mxPoint x="257.25" y="670.0000000000001" as="sourcePoint"/>
                        <mxPoint x="84" y="980" as="targetPoint"/>
                        <Array as="points">
                            <mxPoint x="352" y="980"/>
                        </Array>
                    </mxGeometry>
                </mxCell>
                <mxCell id="127" value="" style="endArrow=none;html=1;startArrow=none;endFill=0;" edge="1" parent="1">
                    <mxGeometry width="50" height="50" relative="1" as="geometry">
                        <mxPoint x="84" y="980" as="sourcePoint"/>
                        <mxPoint x="14" y="250" as="targetPoint"/>
                        <Array as="points">
                            <mxPoint x="14" y="980"/>
                        </Array>
                    </mxGeometry>
                </mxCell>
                <mxCell id="128" value="" style="endArrow=classic;html=1;entryX=0;entryY=0.5;entryDx=0;entryDy=0;" edge="1" parent="1" target="107">
                    <mxGeometry width="50" height="50" relative="1" as="geometry">
                        <mxPoint x="14" y="250" as="sourcePoint"/>
                        <mxPoint x="104" y="150" as="targetPoint"/>
                        <Array as="points">
                            <mxPoint x="14" y="215"/>
                        </Array>
                    </mxGeometry>
                </mxCell>
                <mxCell id="129" style="edgeStyle=none;html=1;entryX=0.5;entryY=0;entryDx=0;entryDy=0;exitX=0.035;exitY=0.006;exitDx=0;exitDy=0;exitPerimeter=0;" edge="1" parent="1" source="103" target="105">
                    <mxGeometry relative="1" as="geometry">
                        <Array as="points">
                            <mxPoint x="710" y="297"/>
                        </Array>
                        <mxPoint x="384.00499999999965" y="304.1129400000002" as="sourcePoint"/>
                        <mxPoint x="566.29" y="365" as="targetPoint"/>
                    </mxGeometry>
                </mxCell>
            </root>
        </mxGraphModel>
    </diagram>
</mxfile>